<mxfile host="app.diagrams.net" agent="Mozilla/5.0 (Windows NT 10.0; Win64; x64) AppleWebKit/537.36 (KHTML, like Gecko) Chrome/136.0.0.0 Safari/537.36" version="27.1.4">
  <diagram name="C4-Level1-SystemContext" id="c4acf3e9-155e-7222-9cf6-157b1a14988f">
    <mxGraphModel dx="1809" dy="1110" grid="1" gridSize="10" guides="1" tooltips="1" connect="1" arrows="1" fold="1" page="1" pageScale="1" pageWidth="827" pageHeight="1169" math="0" shadow="0">
      <root>
        <mxCell id="0" />
        <mxCell id="1" parent="0" />
        <mxCell id="system1" value="&lt;b&gt;APP&lt;/b&gt;&lt;br&gt;[Software System]&lt;br&gt;&lt;br&gt;Provides REST API for managing client data including CRUD operations" style="rounded=1;whiteSpace=wrap;html=1;fillColor=#1061B0;strokeColor=none;fontColor=#ffffff;align=center;verticalAlign=middle;fontStyle=0;fontSize=12;labelBackgroundColor=none;" parent="1" vertex="1">
          <mxGeometry x="500" y="150" width="200" height="180" as="geometry" />
        </mxCell>
        <mxCell id="rel1" value="Makes API calls&lt;br&gt;[HTTPS/JSON]" style="edgeStyle=orthogonalEdgeStyle;rounded=0;orthogonalLoop=1;jettySize=auto;html=1;strokeWidth=2;fontColor=#707070;jumpStyle=none;fillColor=#ffffff;exitX=0.5;exitY=0.5;exitDx=0;exitDy=0;exitPerimeter=0;" parent="1" source="Ax5_jnm-B6OHIKVMbrOC-1" target="system1" edge="1">
          <mxGeometry relative="1" as="geometry">
            <mxPoint x="375" y="240" as="targetPoint" />
            <mxPoint x="350" y="240" as="sourcePoint" />
          </mxGeometry>
        </mxCell>
        <mxCell id="Ax5_jnm-B6OHIKVMbrOC-1" value="Actor" style="shape=umlActor;verticalLabelPosition=bottom;verticalAlign=top;html=1;outlineConnect=0;" vertex="1" parent="1">
          <mxGeometry x="240" y="180" width="60" height="120" as="geometry" />
        </mxCell>
      </root>
    </mxGraphModel>
  </diagram>
</mxfile>
